<?xml version="1.0" encoding="UTF-8" standalone="no"?>
<!DOCTYPE svg PUBLIC "-//W3C//DTD SVG 1.1//EN" "http://www.w3.org/Graphics/SVG/1.1/DTD/svg11.dtd">
<svg version="1.1" xmlns="http://www.w3.org/2000/svg" xmlns:xlink="http://www.w3.org/1999/xlink" preserveAspectRatio="xMidYMid meet" viewBox="0 0 640 640" width="640" height="640"><defs><path d="M263.75 338.75L376.25 338.75L376.25 376.25L263.75 376.25L263.75 338.75Z" id="b6zPHJR3K"></path><path d="M413.75 376.25C413.75 387.5 413.75 393.75 413.75 395C413.75 405.36 405.36 413.75 395 413.75C380 413.75 260 413.75 245 413.75C234.64 413.75 226.25 405.36 226.25 395C226.25 393.75 226.25 387.5 226.25 376.25C162.97 376.25 127.81 376.25 120.78 376.25C96.53 376.25 75.09 360.8 67.42 337.8C62.92 324.31 40.45 256.88 0 135.51C0 381.21 0 517.7 0 545C0 576.02 25.23 601.25 56.25 601.25C109 601.25 531 601.25 583.75 601.25C614.77 601.25 640 576.02 640 545C640 517.7 640 381.21 640 135.53C599.55 256.89 577.07 324.31 572.58 337.8C564.91 360.8 543.47 376.25 519.22 376.25C505.16 376.25 470 376.25 413.75 376.25Z" id="a30WB7DV7"></path><path d="M245 38.75C213.98 38.75 188.75 63.98 188.75 95C188.75 96.25 188.75 102.5 188.75 113.75L32.26 113.75C74.69 241.06 98.26 311.79 102.98 325.93C105.54 333.6 112.7 338.75 120.78 338.75C127.81 338.75 162.97 338.75 226.25 338.75C226.25 327.5 226.25 321.25 226.25 320C226.25 309.64 234.64 301.25 245 301.25C260 301.25 380 301.25 395 301.25C405.36 301.25 413.75 309.64 413.75 320C413.75 321.25 413.75 327.5 413.75 338.75C477.03 338.75 512.19 338.75 519.22 338.75C527.3 338.75 534.46 333.6 537.02 325.93C541.74 311.79 565.31 241.06 607.74 113.75L451.25 113.75C451.25 102.5 451.25 96.25 451.25 95C451.25 63.98 426.02 38.75 395 38.75C365 38.75 260 38.75 245 38.75ZM226.25 113.75C226.25 102.5 226.25 96.25 226.25 95C226.25 84.65 234.65 76.25 245 76.25C260 76.25 380 76.25 395 76.25C405.35 76.25 413.75 84.65 413.75 95C413.75 96.25 413.75 102.5 413.75 113.75L226.25 113.75Z" id="c11t41KOjF"></path></defs><g><g><g><use xlink:href="#b6zPHJR3K" opacity="1" fill="#ffffff" fill-opacity="1"></use><g><use xlink:href="#b6zPHJR3K" opacity="1" fill-opacity="0" stroke="#000000" stroke-width="1" stroke-opacity="0"></use></g></g><g><use xlink:href="#a30WB7DV7" opacity="1" fill="#ffffff" fill-opacity="1"></use><g><use xlink:href="#a30WB7DV7" opacity="1" fill-opacity="0" stroke="#000000" stroke-width="1" stroke-opacity="0"></use></g></g><g><use xlink:href="#c11t41KOjF" opacity="1" fill="#ffffff" fill-opacity="1"></use><g><use xlink:href="#c11t41KOjF" opacity="1" fill-opacity="0" stroke="#000000" stroke-width="1" stroke-opacity="0"></use></g></g></g></g></svg>