<?xml version="1.0" ?><svg enable-background="new 0 0 64 64" version="1.1" viewBox="0 0 64 64" xml:space="preserve" xmlns="http://www.w3.org/2000/svg" xmlns:xlink="http://www.w3.org/1999/xlink"><g id="Layer_3"><g><g><path d="M32.001,63.251c-17.23,0-31.25-14.02-31.25-31.25s14.02-31.25,31.25-31.25s31.25,14.02,31.25,31.25     S49.231,63.251,32.001,63.251z" fill="#FFFFFF"/><path d="M32,1.5c16.818,0,30.5,13.682,30.5,30.5S48.818,62.5,32,62.5S1.5,48.818,1.5,32S15.182,1.5,32,1.5 M32,0     C14.327,0,0,14.327,0,32c0,17.673,14.327,32,32,32s32-14.327,32-32C64,14.327,49.673,0,32,0L32,0z" fill="#FFFFFF"/></g></g><g><g id="Xing_1_"><path d="M24.933,21.213H17.47l4.41,7.793L16,38.72h7.462l5.879-9.713L24.933,21.213z M40.084,15l-11.76,20.671     L35.901,49h7.917L36.24,35.671L48,15H40.084L40.084,15z" fill="#000000"/></g></g></g></svg>